HIERARCHY
ROOT Hips
{
  OFFSET 83.7249 100.393 -113.496
  CHANNELS 6 Xposition Yposition Zposition Zrotation Xrotation Yrotation
  JOINT RightUpLeg
  {
    OFFSET -8.9458 -8.66707 0.101652
    CHANNELS 3 Zrotation Xrotation Yrotation
    JOINT RightLeg
    {
      OFFSET 0 -44.4227 1.3727
      CHANNELS 3 Zrotation Xrotation Yrotation
      JOINT RightFoot
      {
        OFFSET 0.253549 -42.0924 -1.46059
        CHANNELS 3 Zrotation Xrotation Yrotation
        JOINT RightToes
        {
          OFFSET 0.04 -4.41509 8.4991
          CHANNELS 3 Zrotation Xrotation Yrotation
          End Site
          {
            OFFSET -0.08 -0.137448 9.77979
          }
        }
      }
    }
  }
  JOINT Spine
  {
    OFFSET 0 11.8905 0
    CHANNELS 3 Zrotation Xrotation Yrotation
    JOINT Spine1
    {
      OFFSET 0 25.6574 0.127663
      CHANNELS 3 Zrotation Xrotation Yrotation
      JOINT HEad
      {
        OFFSET 0 8.73416 0.011341
        CHANNELS 3 Zrotation Xrotation Yrotation
        End Site
        {
          OFFSET -0.29 12.7742 2.51395
        }
      }
      JOINT LeftShoulder1
      {
        OFFSET 8.99 -0.362252 -0.22
        CHANNELS 3 Zrotation Xrotation Yrotation
        JOINT LeftArm
        {
          OFFSET 10.2827 -0.00338 0.322123
          CHANNELS 3 Zrotation Xrotation Yrotation
          JOINT LeftForeArm
          {
            OFFSET 32.7669 0.099144 -1.42434
            CHANNELS 3 Zrotation Xrotation Yrotation
            JOINT LeftHand
            {
              OFFSET 27.5643 0.085362 1.02216
              CHANNELS 3 Zrotation Xrotation Yrotation
              End Site
              {
                OFFSET 16.7443 -0.6 1.50291
              }
            }
          }
        }
      }
      JOINT RightShoulder
      {
        OFFSET -8.99 -0.362252 -0.22
        CHANNELS 3 Zrotation Xrotation Yrotation
        JOINT RightArm
        {
          OFFSET -10.2827 -0.00338 0.322123
          CHANNELS 3 Zrotation Xrotation Yrotation
          JOINT RightForeArm
          {
            OFFSET -32.8971 0.099144 -1.42434
            CHANNELS 3 Zrotation Xrotation Yrotation
            JOINT RightHand
            {
              OFFSET -27.4921 0.085362 1.02216
              CHANNELS 3 Zrotation Xrotation Yrotation
              End Site
              {
                OFFSET -16.6312 -0.6 1.50291
              }
            }
          }
        }
      }
    }
  }
  JOINT LeftUpLeg
  {
    OFFSET 8.9458 -8.66707 0.101652
    CHANNELS 3 Zrotation Xrotation Yrotation
    JOINT LeftLeg
    {
      OFFSET 0 -44.4227 1.3727
      CHANNELS 3 Zrotation Xrotation Yrotation
      JOINT LeftFoot
      {
        OFFSET -0.253549 -42.0924 -1.46059
        CHANNELS 3 Zrotation Xrotation Yrotation
        JOINT LeftToes
        {
          OFFSET -0.04 -4.41509 8.4991
          CHANNELS 3 Zrotation Xrotation Yrotation
          End Site
          {
            OFFSET 0.08 -0.047448 9.77979
          }
        }
      }
    }
  }
}
MOTION
Frames:	14
Frame Time:	0.0166667
87.5689 100.6 -1.7632 -1.13259 0.0606325 1.06858 3.78024 -5.76429 -7.69293 1.94193 44.6866 -16.9503 5.08438 -0.307361 -0.355004 -19.4809 -12.4962 5.15966 2.35124 3.61081 0.675665 4.30537 6.15584 -0.19542 -6.80733 2.88055 -0.601726 -5.46658e-016 -1.59028e-015 -1.98785e-016 -92.0536 -25.6554 -15.228 -24.8293 12.6314 -4.76675 0.368473 9.90896 -0.00117926 -3.17143 0.020694 -3.14487 99.6319 -23.9628 22.9055 18.2696 16.3809 26.3031 -0.369625 9.91382 0.00119886 -6.59451 -16.7869 -9.38111 0.973816 15.2933 5.59352 2.04149 2.01816 -0.0509049 -5.26304 7.06859 -0.948792 
87.8378 100.567 -0.349638 -0.734088 0.0197824 0.941213 2.1512 -7.77293 -8.25621 2.49207 48.4793 -18.2202 6.15435 3.27826 -0.53241 -28.4793 -14.316 7.92409 1.89104 3.72852 0.650703 4.06318 6.08034 -0.182906 -6.88544 3.09696 -0.526672 1.36664e-015 0 -5.96354e-016 -92.4614 -24.6799 -16.1014 -24.9055 12.7873 -5.45638 0.368473 9.90896 -0.00117926 -3.26271 0.0164556 -3.20897 99.6105 -25.3006 21.4457 18.1213 16.2754 25.9909 -0.369625 9.91382 0.00119886 -7.30672 -16.0945 -9.13662 1.08581 15.8599 5.69048 2.61944 1.26793 -0.0617624 -4.92565 7.08663 -0.929236 
88.1198 100.46 0.929096 -0.200801 0.0288956 0.334332 0.594508 -10.1464 -8.40996 2.63984 52.6101 -17.609 5.9553 6.68632 -0.658402 -30.5674 -14.7006 8.70034 1.23904 3.8257 0.643795 3.81554 6.21778 -0.188174 -7.05844 3.00134 -0.103432 0 0 -1.98785e-016 -92.7453 -23.9536 -16.8017 -25.2298 13.0821 -6.8037 0.368473 9.90896 -0.00117926 -3.69278 0.031944 -2.86338 99.9188 -26.4315 20.411 17.8652 16.1343 25.528 -0.369625 9.91382 0.00119886 -8.03902 -15.7019 -8.98849 1.07681 16.7703 6.00984 2.70656 0.273354 -0.0399564 -5.31051 7.30489 -0.960287 
88.3799 100.334 2.15875 0.352576 0.047762 -0.389399 -0.796829 -12.6732 -8.45425 2.18298 56.6864 -16.3371 5.33112 8.97154 -0.718915 -27.9831 -13.4427 8.12361 0.573424 3.88478 0.639302 3.5453 6.46716 -0.197968 -7.24842 2.73262 0.393659 2.29845e-016 -1.59028e-015 -4.96962e-017 -92.886 -23.1845 -17.489 -25.6744 13.4434 -8.44221 0.368473 9.90896 -0.00117926 -4.09779 0.0511513 -2.45019 100.231 -27.4674 19.6001 17.5758 15.9709 24.931 -0.369625 9.91382 0.00119886 -8.70591 -15.4003 -8.97598 0.90065 17.7456 6.66423 2.68844 -1.00865 -0.00236315 -5.8925 7.3994 -0.99907 
88.5641 100.232 3.41404 0.854941 0.00432484 -0.96877 -1.91879 -15.1254 -8.74694 1.3032 60.4027 -15.6592 4.78859 8.39881 -0.641032 -18.6422 -8.47976 5.91069 0.0342343 3.86349 0.61377 3.18091 6.8575 -0.206232 -7.38279 2.31259 0.763394 -2.06239e-015 1.59028e-015 -0 -92.7885 -22.1927 -18.3227 -26.1825 13.8334 -10.0862 0.368473 9.90896 -0.00117926 -4.1528 0.0621832 -2.22293 100.35 -28.4854 18.9681 17.2609 15.7762 24.1628 -0.369625 9.91382 0.00119886 -9.2017 -15.0817 -9.20281 0.373647 18.7485 7.94613 2.82522 -3.15076 0.056023 -6.51412 6.91005 -1.02049 
88.7039 100.148 4.65552 1.27061 -0.0518184 -1.41473 -2.78038 -17.4909 -8.79362 0.592491 63.4914 -15.4633 4.24872 6.95316 -0.526528 -8.3289 -3.8437 3.44945 -0.34233 3.80798 0.562608 2.7586 7.29794 -0.208718 -7.43129 1.8345 1.04978 -8.44835e-016 -1.59028e-015 -0 -92.5968 -21.028 -19.3286 -26.6036 14.2049 -11.6221 0.368473 9.90896 -0.00117926 -3.97094 0.0686275 -2.12192 100.299 -29.4176 18.4397 16.9753 15.5755 23.3039 -0.369625 9.91382 0.00119886 -9.57077 -14.6887 -9.44841 -0.20341 19.5805 9.17057 2.94267 -4.9491 0.105568 -6.80954 6.42102 -1.02152 
88.8015 100.101 5.85421 1.53875 -0.0709273 -1.60899 -3.23243 -19.7063 -7.97259 1.13502 65.4601 -16.6409 3.75136 6.33821 -0.463729 -4.43015 -4.32133 1.86968 -0.414168 3.747 0.451099 2.20963 7.68576 -0.190116 -7.296 1.38342 1.22155 3.47873e-016 1.59028e-015 -1.98785e-016 -92.3677 -19.6529 -20.6166 -26.7494 14.511 -12.8325 0.368473 9.90896 -0.00117926 -3.46647 0.071518 -2.17792 99.9798 -30.1992 17.9364 16.7937 15.3936 22.3845 -0.369625 9.91382 0.00119886 -9.83825 -14.074 -9.67159 -0.481589 19.8875 9.76223 2.84585 -4.84756 0.102083 -5.9391 6.54052 -0.970174 
88.8903 100.056 7.05347 1.66946 -0.125578 -1.67805 -3.36124 -21.7258 -6.92545 2.06258 66.6539 -17.7968 3.43404 5.66339 -0.418971 -3.18628 -5.98176 0.866292 -0.359133 3.69053 0.346166 1.7764 8.08565 -0.1774 -7.12317 1.00534 1.30378 -5.96354e-016 3.18055e-015 1.98785e-016 -92.221 -18.1569 -22.0848 -26.73 14.7461 -13.7302 0.368473 9.90896 -0.00117926 -2.91131 0.0666351 -2.3731 99.5267 -30.8958 17.4086 16.6754 15.2318 21.5145 -0.369625 9.91382 0.00119886 -9.97471 -13.3992 -9.44519 -0.563822 20.1816 9.60674 2.83324 -4.47561 0.0923174 -5.1649 6.73621 -0.927812 
89.0127 99.9646 8.30344 1.61641 -0.297272 -1.70693 -3.28981 -23.4565 -6.21575 2.23798 67.3675 -16.9764 3.53385 4.40872 -0.389572 -3.01268 -5.99726 0.785483 -0.279971 3.6648 0.308741 1.72682 8.5522 -0.195776 -7.02158 0.776271 1.32767 -4.47266e-016 1.59028e-015 -1.98785e-016 -92.3382 -16.5768 -23.6928 -26.586 14.8746 -14.2027 0.368473 9.90896 -0.00117926 -2.54148 0.0474716 -2.72674 99.0238 -31.5474 16.7975 16.5991 15.0967 20.78 -0.369625 9.91382 0.00119886 -9.92088 -12.8165 -7.77907 -0.351272 21.0327 7.82182 3.19096 -5.25199 0.113645 -5.7944 6.66576 -0.963439 
89.1438 99.8925 9.55479 1.48597 -0.509453 -1.70175 -3.1155 -24.9588 -5.56673 2.21559 67.3758 -15.6091 3.79806 3.1659 -0.372377 -3.4111 -5.74515 1.005 -0.258565 3.64987 0.321986 1.91851 9.013 -0.235636 -7.00308 0.691112 1.24315 -5.96354e-016 0 3.97569e-016 -92.6382 -15.0338 -25.3808 -26.3362 14.9399 -14.4089 0.368473 9.90896 -0.00117926 -2.3798 0.0219555 -3.15832 98.493 -32.1654 16.0425 16.5931 15.0104 20.2796 -0.369625 9.91382 0.00119886 -9.88873 -12.1709 -6.33891 -0.0741962 21.8604 6.13038 3.7688 -6.25285 0.150662 -6.84925 6.36727 -1.02251 
89.2814 99.9114 10.7613 1.38049 -0.728343 -1.71176 -2.9754 -26.2536 -4.85691 2.48015 66.5122 -14.767 4.09573 2.44366 -0.365858 -3.42596 -5.78416 1.00466 -0.477101 3.6347 0.411092 2.38143 9.44858 -0.307641 -7.18717 0.801304 0.958779 -4.96962e-016 3.18055e-015 -5.96354e-016 -93.2538 -13.6872 -27.1542 -25.9692 14.9496 -14.3901 0.368473 9.90896 -0.00117926 -2.71145 -0.00488882 -3.61378 98.0769 -32.747 15.0091 16.6951 15.0158 20.2379 -0.369625 9.91382 0.00119886 -10.0604 -11.3651 -7.06101 -0.195765 22.2414 6.60268 4.66764 -6.99528 0.209373 -7.94344 5.59233 -1.08418 
89.3986 99.9593 11.9638 1.26519 -0.907102 -1.69247 -2.80786 -27.3675 -4.16942 2.89643 64.9267 -14.3459 4.29668 1.97078 -0.361458 -2.93633 -5.73986 0.817216 -0.737758 3.61876 0.510929 2.8658 9.75468 -0.376086 -7.35149 1.01332 0.629909 3.97569e-016 -1.59028e-015 -0 -93.825 -12.4339 -28.7815 -25.595 14.9623 -14.3918 0.368473 9.90896 -0.00117926 -2.98467 -0.0308736 -4.03305 97.4784 -33.3657 13.8509 16.857 15.0583 20.3619 -0.369625 9.91382 0.00119886 -10.1928 -10.49 -8.08866 -0.343413 22.3816 7.46411 5.41803 -7.5752 0.262637 -8.60929 4.8581 -1.11657 
89.4623 99.992 13.1968 1.1248 -0.965823 -1.58515 -2.59464 -28.3341 -3.58572 3.29393 62.6725 -14.3203 4.12654 1.77156 -0.349582 -0.514502 -5.70173 -0.178673 -0.88197 3.59549 0.557225 3.09143 9.7474 -0.40029 -7.27258 1.29061 0.389641 -1.98785e-016 0 1.98785e-016 -93.9808 -11.1772 -29.9496 -25.3269 15.0479 -14.722 0.368473 9.90896 -0.00117926 -2.56315 -0.0503404 -4.30248 96.2593 -34.1824 12.6355 17.0533 15.0939 20.4103 -0.369625 9.91382 0.00119886 -10.1803 -9.59237 -8.10364 -0.180686 22.3142 7.59023 5.33797 -7.80491 0.2702 -7.64079 4.705 -1.03634 
89.4881 100.027 14.4334 1.0035 -0.96993 -1.48165 -2.35059 -29.1576 -2.99851 3.67686 59.8818 -15.0167 3.88943 1.46804 -0.332243 0.898761 -4.83489 -0.538505 -0.974367 3.57201 0.572608 3.17463 9.64624 -0.404988 -7.08106 1.51364 0.213317 -4.96962e-017 0 -0 -93.9367 -10.0568 -30.9283 -25.1374 15.1757 -15.2356 0.368473 9.90896 -0.00117926 -1.98473 -0.0687514 -4.52867 94.9739 -34.9487 11.4861 17.2482 15.1275 20.4544 -0.369625 9.91382 0.00119886 -10.0947 -8.6834 -7.48664 0.10498 22.1489 7.042 5.16062 -8.05251 0.276653 -6.85739 4.81474 -0.976606 
